<svg xmlns="http://www.w3.org/2000/svg" viewBox="0 0 64 64" width="64" height="64">
  <!-- Background circle -->
  <circle cx="32" cy="32" r="30" fill="#303030" stroke="#03fce8" stroke-width="2"/>
  
  <!-- Hourglass frame -->
  <path d="M18 12 h28 v4 c0 8 -10 12 -14 16 c4 4 14 8 14 16 v4 h-28 v-4 c0 -8 10 -12 14 -16 c-4 -4 -14 -8 -14 -16 v-4z" 
        fill="none" stroke="#03fce8" stroke-width="2.5" stroke-linejoin="round"/>
  
  <!-- Top sand -->
  <path d="M22 16 h20 v2 c0 6 -8 9 -10 12 c-2 -3 -10 -6 -10 -12 v-2z" 
        fill="#03fce8" opacity="0.7"/>
  
  <!-- Bottom sand -->
  <path d="M22 48 h20 v-2 c0 -6 -8 -9 -10 -12 c-2 3 -10 6 -10 12 v2z" 
        fill="#03fce8" opacity="0.9"/>
  
  <!-- Falling sand particles -->
  <circle cx="32" cy="34" r="1.5" fill="#03fce8"/>
  <circle cx="32" cy="38" r="1" fill="#03fce8" opacity="0.7"/>
</svg>
